<mxfile host="app.diagrams.net" modified="2024-01-21T16:48:24.235Z" agent="Mozilla/5.0 (X11; Linux x86_64; rv:97.0) Gecko/20100101 Firefox/97.0" etag="WyNNjYahLGfZ34BFhJgT" version="22.1.21" type="github">
  <diagram id="C5RBs43oDa-KdzZeNtuy" name="Page-1">
    <mxGraphModel dx="629" dy="316" grid="1" gridSize="10" guides="1" tooltips="1" connect="1" arrows="1" fold="1" page="1" pageScale="1" pageWidth="827" pageHeight="1169" math="0" shadow="0">
      <root>
        <mxCell id="WIyWlLk6GJQsqaUBKTNV-0" />
        <mxCell id="WIyWlLk6GJQsqaUBKTNV-1" parent="WIyWlLk6GJQsqaUBKTNV-0" />
        <mxCell id="5yLHUb0raLHYCu0k9t0y-6" style="edgeStyle=orthogonalEdgeStyle;rounded=0;orthogonalLoop=1;jettySize=auto;html=1;entryX=0.5;entryY=0;entryDx=0;entryDy=0;movable=0;resizable=0;rotatable=0;deletable=0;editable=0;locked=1;connectable=0;" edge="1" parent="WIyWlLk6GJQsqaUBKTNV-1" source="5yLHUb0raLHYCu0k9t0y-0" target="5yLHUb0raLHYCu0k9t0y-5">
          <mxGeometry relative="1" as="geometry" />
        </mxCell>
        <mxCell id="5yLHUb0raLHYCu0k9t0y-0" value="&lt;div&gt;User refers to generate 1x1 px image link to embed in an email&lt;/div&gt;" style="rounded=1;whiteSpace=wrap;html=1;movable=0;resizable=0;rotatable=0;deletable=0;editable=0;locked=1;connectable=0;" vertex="1" parent="WIyWlLk6GJQsqaUBKTNV-1">
          <mxGeometry x="620" y="120" width="170" height="60" as="geometry" />
        </mxCell>
        <mxCell id="5yLHUb0raLHYCu0k9t0y-4" style="edgeStyle=orthogonalEdgeStyle;rounded=0;orthogonalLoop=1;jettySize=auto;html=1;exitX=1;exitY=0.5;exitDx=0;exitDy=0;entryX=0;entryY=0.5;entryDx=0;entryDy=0;movable=0;resizable=0;rotatable=0;deletable=0;editable=0;locked=1;connectable=0;" edge="1" parent="WIyWlLk6GJQsqaUBKTNV-1" source="5yLHUb0raLHYCu0k9t0y-2" target="5yLHUb0raLHYCu0k9t0y-0">
          <mxGeometry relative="1" as="geometry" />
        </mxCell>
        <mxCell id="5yLHUb0raLHYCu0k9t0y-2" value="" style="ellipse;whiteSpace=wrap;html=1;aspect=fixed;movable=0;resizable=0;rotatable=0;deletable=0;editable=0;locked=1;connectable=0;" vertex="1" parent="WIyWlLk6GJQsqaUBKTNV-1">
          <mxGeometry x="435" y="110" width="80" height="80" as="geometry" />
        </mxCell>
        <mxCell id="5yLHUb0raLHYCu0k9t0y-3" value="" style="ellipse;whiteSpace=wrap;html=1;aspect=fixed;fillColor=#000000;movable=0;resizable=0;rotatable=0;deletable=0;editable=0;locked=1;connectable=0;" vertex="1" parent="WIyWlLk6GJQsqaUBKTNV-1">
          <mxGeometry x="450" y="125" width="50" height="50" as="geometry" />
        </mxCell>
        <mxCell id="5yLHUb0raLHYCu0k9t0y-15" style="edgeStyle=orthogonalEdgeStyle;rounded=0;orthogonalLoop=1;jettySize=auto;html=1;exitX=1;exitY=0.5;exitDx=0;exitDy=0;movable=0;resizable=0;rotatable=0;deletable=0;editable=0;locked=1;connectable=0;" edge="1" parent="WIyWlLk6GJQsqaUBKTNV-1" source="5yLHUb0raLHYCu0k9t0y-5" target="5yLHUb0raLHYCu0k9t0y-11">
          <mxGeometry relative="1" as="geometry" />
        </mxCell>
        <mxCell id="5yLHUb0raLHYCu0k9t0y-5" value="&lt;div&gt;Sends email with the embedded link&lt;/div&gt;" style="rounded=1;whiteSpace=wrap;html=1;movable=0;resizable=0;rotatable=0;deletable=0;editable=0;locked=1;connectable=0;" vertex="1" parent="WIyWlLk6GJQsqaUBKTNV-1">
          <mxGeometry x="500" y="220" width="120" height="60" as="geometry" />
        </mxCell>
        <mxCell id="5yLHUb0raLHYCu0k9t0y-8" value="" style="rounded=1;whiteSpace=wrap;html=1;fillColor=none;movable=0;resizable=0;rotatable=0;deletable=0;editable=0;locked=1;connectable=0;" vertex="1" parent="WIyWlLk6GJQsqaUBKTNV-1">
          <mxGeometry x="427" y="80" width="400" height="240" as="geometry" />
        </mxCell>
        <mxCell id="5yLHUb0raLHYCu0k9t0y-9" value="&lt;font style=&quot;font-size: 15px;&quot;&gt;&lt;u&gt;&lt;b&gt;Sending email&lt;/b&gt;&lt;/u&gt;&lt;/font&gt;" style="text;strokeColor=none;align=center;fillColor=none;html=1;verticalAlign=middle;whiteSpace=wrap;rounded=0;movable=0;resizable=0;rotatable=0;deletable=0;editable=0;locked=1;connectable=0;" vertex="1" parent="WIyWlLk6GJQsqaUBKTNV-1">
          <mxGeometry x="572" y="80" width="110" height="30" as="geometry" />
        </mxCell>
        <mxCell id="5yLHUb0raLHYCu0k9t0y-11" value="" style="ellipse;whiteSpace=wrap;html=1;aspect=fixed;fillColor=#000000;movable=0;resizable=0;rotatable=0;deletable=0;editable=0;locked=1;connectable=0;" vertex="1" parent="WIyWlLk6GJQsqaUBKTNV-1">
          <mxGeometry x="730" y="230" width="40" height="40" as="geometry" />
        </mxCell>
        <mxCell id="5yLHUb0raLHYCu0k9t0y-27" style="edgeStyle=orthogonalEdgeStyle;rounded=0;orthogonalLoop=1;jettySize=auto;html=1;entryX=0.5;entryY=0;entryDx=0;entryDy=0;movable=0;resizable=0;rotatable=0;deletable=0;editable=0;locked=1;connectable=0;" edge="1" parent="WIyWlLk6GJQsqaUBKTNV-1" source="5yLHUb0raLHYCu0k9t0y-18" target="5yLHUb0raLHYCu0k9t0y-21">
          <mxGeometry relative="1" as="geometry" />
        </mxCell>
        <mxCell id="5yLHUb0raLHYCu0k9t0y-18" value="&lt;div&gt;The receiver opens email and tries to reach the img&lt;/div&gt;" style="rounded=1;whiteSpace=wrap;html=1;movable=0;resizable=0;rotatable=0;deletable=0;editable=0;locked=1;connectable=0;" vertex="1" parent="WIyWlLk6GJQsqaUBKTNV-1">
          <mxGeometry x="1100" y="80" width="120" height="60" as="geometry" />
        </mxCell>
        <mxCell id="5yLHUb0raLHYCu0k9t0y-28" style="edgeStyle=orthogonalEdgeStyle;rounded=0;orthogonalLoop=1;jettySize=auto;html=1;entryX=0.5;entryY=0;entryDx=0;entryDy=0;movable=0;resizable=0;rotatable=0;deletable=0;editable=0;locked=1;connectable=0;" edge="1" parent="WIyWlLk6GJQsqaUBKTNV-1" source="5yLHUb0raLHYCu0k9t0y-21" target="5yLHUb0raLHYCu0k9t0y-23">
          <mxGeometry relative="1" as="geometry" />
        </mxCell>
        <mxCell id="5yLHUb0raLHYCu0k9t0y-21" value="Server receives the img request" style="rounded=1;whiteSpace=wrap;html=1;movable=0;resizable=0;rotatable=0;deletable=0;editable=0;locked=1;connectable=0;" vertex="1" parent="WIyWlLk6GJQsqaUBKTNV-1">
          <mxGeometry x="1100" y="190" width="120" height="60" as="geometry" />
        </mxCell>
        <mxCell id="5yLHUb0raLHYCu0k9t0y-22" value="Each img link has unique id." style="shape=callout;whiteSpace=wrap;html=1;perimeter=calloutPerimeter;movable=0;resizable=0;rotatable=0;deletable=0;editable=0;locked=1;connectable=0;" vertex="1" parent="WIyWlLk6GJQsqaUBKTNV-1">
          <mxGeometry x="707" y="40" width="120" height="80" as="geometry" />
        </mxCell>
        <mxCell id="5yLHUb0raLHYCu0k9t0y-30" style="edgeStyle=orthogonalEdgeStyle;rounded=0;orthogonalLoop=1;jettySize=auto;html=1;exitX=0.5;exitY=1;exitDx=0;exitDy=0;entryX=0.5;entryY=0;entryDx=0;entryDy=0;movable=0;resizable=0;rotatable=0;deletable=0;editable=0;locked=1;connectable=0;" edge="1" parent="WIyWlLk6GJQsqaUBKTNV-1" source="5yLHUb0raLHYCu0k9t0y-23" target="5yLHUb0raLHYCu0k9t0y-29">
          <mxGeometry relative="1" as="geometry" />
        </mxCell>
        <mxCell id="5yLHUb0raLHYCu0k9t0y-23" value="Saves to the db the img id opened date" style="rounded=1;whiteSpace=wrap;html=1;movable=0;resizable=0;rotatable=0;deletable=0;editable=0;locked=1;connectable=0;" vertex="1" parent="WIyWlLk6GJQsqaUBKTNV-1">
          <mxGeometry x="1100" y="280" width="120" height="60" as="geometry" />
        </mxCell>
        <mxCell id="5yLHUb0raLHYCu0k9t0y-25" value="Actor" style="shape=umlActor;verticalLabelPosition=bottom;verticalAlign=top;html=1;outlineConnect=0;movable=0;resizable=0;rotatable=0;deletable=0;editable=0;locked=1;connectable=0;" vertex="1" parent="WIyWlLk6GJQsqaUBKTNV-1">
          <mxGeometry x="960" y="70" width="30" height="60" as="geometry" />
        </mxCell>
        <mxCell id="5yLHUb0raLHYCu0k9t0y-26" style="edgeStyle=orthogonalEdgeStyle;rounded=0;orthogonalLoop=1;jettySize=auto;html=1;entryX=-0.01;entryY=0.364;entryDx=0;entryDy=0;entryPerimeter=0;movable=0;resizable=0;rotatable=0;deletable=0;editable=0;locked=1;connectable=0;" edge="1" parent="WIyWlLk6GJQsqaUBKTNV-1" source="5yLHUb0raLHYCu0k9t0y-25" target="5yLHUb0raLHYCu0k9t0y-18">
          <mxGeometry relative="1" as="geometry" />
        </mxCell>
        <mxCell id="5yLHUb0raLHYCu0k9t0y-29" value="" style="ellipse;whiteSpace=wrap;html=1;aspect=fixed;fillColor=#000000;movable=0;resizable=0;rotatable=0;deletable=0;editable=0;locked=1;connectable=0;" vertex="1" parent="WIyWlLk6GJQsqaUBKTNV-1">
          <mxGeometry x="1140" y="380" width="40" height="40" as="geometry" />
        </mxCell>
        <mxCell id="5yLHUb0raLHYCu0k9t0y-31" value="" style="rounded=1;whiteSpace=wrap;html=1;fillColor=none;movable=0;resizable=0;rotatable=0;deletable=0;editable=0;locked=1;connectable=0;" vertex="1" parent="WIyWlLk6GJQsqaUBKTNV-1">
          <mxGeometry x="940" y="40" width="330" height="390" as="geometry" />
        </mxCell>
        <mxCell id="5yLHUb0raLHYCu0k9t0y-33" value="&lt;div style=&quot;font-size: 15px;&quot;&gt;&lt;font style=&quot;font-size: 15px;&quot;&gt;&lt;u&gt;&lt;b&gt;Interacting with email&lt;/b&gt;&lt;/u&gt;&lt;/font&gt;&lt;/div&gt;" style="text;strokeColor=none;align=center;fillColor=none;html=1;verticalAlign=middle;whiteSpace=wrap;rounded=0;movable=0;resizable=0;rotatable=0;deletable=0;editable=0;locked=1;connectable=0;" vertex="1" parent="WIyWlLk6GJQsqaUBKTNV-1">
          <mxGeometry x="1015" y="40" width="180" height="30" as="geometry" />
        </mxCell>
      </root>
    </mxGraphModel>
  </diagram>
</mxfile>
